<svg width="20" height="21" viewBox="0 0 20 21" fill="none" xmlns="http://www.w3.org/2000/svg">
<path fill-rule="evenodd" clip-rule="evenodd" d="M9.50422 1C6.65336 1 4.32208 3.33401 4.32209 6.18822C4.32211 9.04243 6.65338 11.3764 9.50422 11.3764C12.3551 11.3764 14.6779 9.04243 14.6779 6.18822C14.6779 3.33401 12.3551 1 9.50422 1ZM9.50422 2.72884C11.4218 2.72884 12.9511 4.26837 12.9511 6.18822C12.9511 8.1081 11.4218 9.6459 9.50422 9.6459C7.58661 9.6459 6.04891 8.1081 6.0489 6.18822C6.0489 4.26837 7.5866 2.72884 9.50422 2.72884ZM9.4352 13.1053C9.4591 13.1053 9.48211 13.1053 9.50422 13.1053C9.52661 13.1053 9.54994 13.1053 9.57416 13.1053C10.484 13.1047 12.6674 13.1034 14.7369 13.7941C15.7993 14.1486 16.8513 14.693 17.661 15.5685C18.4708 16.4441 19 17.6658 19 19.1545C18.9896 19.6245 18.6061 20 18.1366 20C17.6671 20 17.2836 19.6245 17.2732 19.1545C17.2732 18.05 16.9323 17.3251 16.3929 16.7419C15.8536 16.1587 15.0743 15.7272 14.1939 15.4335C12.4333 14.8467 10.3676 14.8341 9.50422 14.8341C8.6408 14.8341 6.57346 14.8459 4.81282 15.4335C3.9325 15.7273 3.14645 16.1587 2.60708 16.7419C2.06772 17.3251 1.72681 18.05 1.72681 19.1545C1.7164 19.6245 1.33291 20 0.863406 20C0.393906 20 0.0104116 19.6245 0 19.1545C-3.65219e-06 17.6658 0.529248 16.4441 1.33895 15.5685C2.14866 14.693 3.20241 14.1486 4.26476 13.7941C6.33506 13.1035 8.52563 13.1047 9.4352 13.1053Z" fill="black"/>
<path d="M4.32209 6.18822L4.07209 6.18822V6.18822L4.32209 6.18822ZM14.6779 6.18822L14.9279 6.18822V6.18822L14.6779 6.18822ZM12.9511 6.18822L13.2011 6.18822V6.18822L12.9511 6.18822ZM6.0489 6.18822L5.7989 6.18822V6.18822L6.0489 6.18822ZM9.4352 13.1053L9.43506 13.3553H9.43507L9.4352 13.1053ZM9.57416 13.1053L9.57402 12.8553H9.57402L9.57416 13.1053ZM14.7369 13.7941L14.6578 14.0313L14.6578 14.0313L14.7369 13.7941ZM17.661 15.5685L17.8446 15.3988L17.661 15.5685ZM19 19.1545L19.25 19.1601V19.1545H19ZM17.2732 19.1545H17.0231L17.0232 19.1601L17.2732 19.1545ZM16.3929 16.7419L16.5765 16.5722H16.5765L16.3929 16.7419ZM14.1939 15.4335L14.2731 15.1963L14.273 15.1963L14.1939 15.4335ZM4.81282 15.4335L4.73368 15.1963L4.81282 15.4335ZM2.60708 16.7419L2.42355 16.5722L2.42354 16.5722L2.60708 16.7419ZM1.72681 19.1545L1.97681 19.1601V19.1545H1.72681ZM0 19.1545H-0.250061L-0.249939 19.1601L0 19.1545ZM1.33895 15.5685L1.15541 15.3988H1.15541L1.33895 15.5685ZM4.26476 13.7941L4.18565 13.557L4.18562 13.557L4.26476 13.7941ZM4.57209 6.18822C4.57208 3.4718 6.79171 1.25 9.50422 1.25V0.75C6.51501 0.75 4.07208 3.19621 4.07209 6.18822L4.57209 6.18822ZM9.50422 11.1264C6.79172 11.1264 4.5721 8.90463 4.57209 6.18822L4.07209 6.18822C4.07211 9.18022 6.51503 11.6264 9.50422 11.6264V11.1264ZM14.4279 6.18822C14.4279 8.90516 12.2162 11.1264 9.50422 11.1264V11.6264C12.4939 11.6264 14.9279 9.17969 14.9279 6.18822L14.4279 6.18822ZM9.50422 1.25C12.2162 1.25 14.4279 3.47127 14.4279 6.18822L14.9279 6.18822C14.9279 3.19674 12.4939 0.75 9.50422 0.75V1.25ZM13.2011 6.18822C13.2011 4.13137 11.561 2.47884 9.50422 2.47884V2.97884C11.2827 2.97884 12.7011 4.40536 12.7011 6.18822L13.2011 6.18822ZM9.50422 9.8959C11.5608 9.8959 13.2011 8.24525 13.2011 6.18822L12.7011 6.18822C12.7011 7.97094 11.2828 9.3959 9.50422 9.3959V9.8959ZM5.7989 6.18822C5.79891 8.24605 7.44842 9.8959 9.50422 9.8959V9.3959C7.7248 9.3959 6.29891 7.97015 6.2989 6.18822L5.7989 6.18822ZM9.50422 2.47884C7.44825 2.47884 5.7989 4.13057 5.7989 6.18822L6.2989 6.18822C6.2989 4.40616 7.72495 2.97884 9.50422 2.97884V2.47884ZM9.50422 12.8553C9.4822 12.8553 9.45926 12.8553 9.43534 12.8553L9.43507 13.3553C9.45894 13.3553 9.48203 13.3553 9.50422 13.3553V12.8553ZM9.57402 12.8553C9.54978 12.8553 9.52653 12.8553 9.50422 12.8553V13.3553C9.5267 13.3553 9.55009 13.3553 9.57431 13.3553L9.57402 12.8553ZM14.8161 13.557C12.7038 12.8521 10.4833 12.8547 9.57402 12.8553L9.57431 13.3553C10.4847 13.3547 12.6309 13.3548 14.6578 14.0313L14.8161 13.557ZM17.8446 15.3988C16.9967 14.482 15.9022 13.9194 14.8161 13.557L14.6578 14.0313C15.6963 14.3778 16.706 14.9041 17.4775 15.7383L17.8446 15.3988ZM19.25 19.1545C19.25 17.6038 18.6976 16.3212 17.8446 15.3988L17.4775 15.7383C18.2439 16.5669 18.75 17.7278 18.75 19.1545H19.25ZM18.1366 20.25C18.7423 20.25 19.2365 19.7656 19.2499 19.1601L18.7501 19.149C18.7427 19.4833 18.4699 19.75 18.1366 19.75V20.25ZM17.0232 19.1601C17.0367 19.7656 17.5309 20.25 18.1366 20.25V19.75C17.8033 19.75 17.5305 19.4833 17.5231 19.149L17.0232 19.1601ZM16.2094 16.9117C16.7055 17.4482 17.0232 18.1122 17.0232 19.1545H17.5232C17.5232 17.9878 17.159 17.2021 16.5765 16.5722L16.2094 16.9117ZM14.1148 15.6706C14.971 15.9563 15.7081 16.3696 16.2094 16.9117L16.5765 16.5722C15.999 15.9478 15.1775 15.4981 14.2731 15.1963L14.1148 15.6706ZM9.50422 15.0841C10.3697 15.0841 12.3974 15.0983 14.1149 15.6707L14.273 15.1963C12.4692 14.5952 10.3655 14.5841 9.50422 14.5841V15.0841ZM4.89195 15.6706C6.60935 15.0975 8.63857 15.0841 9.50422 15.0841V14.5841C8.64303 14.5841 6.53757 14.5943 4.73368 15.1963L4.89195 15.6706ZM2.79062 16.9117C3.29154 16.3701 4.03501 15.9566 4.89195 15.6706L4.73368 15.1963C3.82998 15.4979 3.00136 15.9474 2.42355 16.5722L2.79062 16.9117ZM1.97681 19.1545C1.97681 18.1122 2.29447 17.4482 2.79062 16.9117L2.42354 16.5722C1.84097 17.2021 1.47681 17.9878 1.47681 19.1545H1.97681ZM0.863406 20.25C1.46909 20.25 1.96334 19.7656 1.97675 19.1601L1.47687 19.149C1.46947 19.4833 1.19673 19.75 0.863406 19.75V20.25ZM-0.249939 19.1601C-0.236523 19.7656 0.257725 20.25 0.863406 20.25V19.75C0.530086 19.75 0.257346 19.4833 0.249939 19.149L-0.249939 19.1601ZM1.15541 15.3988C0.30236 16.3212 -0.250004 17.6038 -0.25 19.1545H0.25C0.249996 17.7278 0.756135 16.5669 1.52249 15.7383L1.15541 15.3988ZM4.18562 13.557C3.09958 13.9194 2.00341 14.4819 1.15541 15.3988L1.52249 15.7383C2.29391 14.9042 3.30524 14.3779 4.34389 14.0313L4.18562 13.557ZM9.43535 12.8553C8.52637 12.8547 6.29863 12.8521 4.18565 13.557L4.34387 14.0313C6.37148 13.3549 8.52489 13.3547 9.43506 13.3553L9.43535 12.8553Z" fill="black"/>
</svg>
