<svg width="26" height="26" viewBox="0 0 26 26" fill="none" xmlns="http://www.w3.org/2000/svg">
<path d="M17.333 3.25H1.08301V17.3333H17.333V3.25Z" stroke="#000" stroke-width="2" stroke-linecap="round" stroke-linejoin="round"/>
<path d="M17.333 8.66675H21.6663L24.9163 11.9167V17.3334H17.333V8.66675Z" stroke="#000" stroke-width="2" stroke-linecap="round" stroke-linejoin="round"/>
<path d="M5.95833 22.7499C7.4541 22.7499 8.66667 21.5374 8.66667 20.0416C8.66667 18.5458 7.4541 17.3333 5.95833 17.3333C4.46256 17.3333 3.25 18.5458 3.25 20.0416C3.25 21.5374 4.46256 22.7499 5.95833 22.7499Z" stroke="#000" stroke-width="2" stroke-linecap="round" stroke-linejoin="round"/>
<path d="M20.0413 22.7499C21.5371 22.7499 22.7497 21.5374 22.7497 20.0416C22.7497 18.5458 21.5371 17.3333 20.0413 17.3333C18.5456 17.3333 17.333 18.5458 17.333 20.0416C17.333 21.5374 18.5456 22.7499 20.0413 22.7499Z" stroke="#000" stroke-width="2" stroke-linecap="round" stroke-linejoin="round"/>
</svg>
