<svg width="44" height="44" viewBox="0 0 44 44" fill="none" xmlns="http://www.w3.org/2000/svg">
<path d="M25.6673 3.66675H11.0007C10.0282 3.66675 9.09556 4.05306 8.40793 4.74069C7.72029 5.42832 7.33398 6.36095 7.33398 7.33341V36.6667C7.33398 37.6392 7.72029 38.5718 8.40793 39.2595C9.09556 39.9471 10.0282 40.3334 11.0007 40.3334H33.0007C33.9731 40.3334 34.9057 39.9471 35.5934 39.2595C36.281 38.5718 36.6673 37.6392 36.6673 36.6667V14.6667L25.6673 3.66675Z" stroke="black" stroke-width="2" stroke-linecap="round" stroke-linejoin="round"/>
<path d="M25.666 3.66675V14.6667H36.666" stroke="black" stroke-width="2" stroke-linecap="round" stroke-linejoin="round"/>
<path d="M29.3327 23.8333H14.666" stroke="#FFB436" stroke-width="2" stroke-linecap="round" stroke-linejoin="round"/>
<path d="M29.3327 31.1667H14.666" stroke="#FFB436" stroke-width="2" stroke-linecap="round" stroke-linejoin="round"/>
<path d="M18.3327 16.5H16.4993H14.666" stroke="#FFB436" stroke-width="2" stroke-linecap="round" stroke-linejoin="round"/>
</svg>
