<svg width="127" height="114" viewBox="0 0 127 114" fill="none" xmlns="http://www.w3.org/2000/svg">
<path d="M107.697 57.1998C108.185 57.1998 108.582 57.5959 108.572 58.0842C108.409 65.9005 106.095 73.5271 101.874 80.1214C97.4943 86.9643 91.2458 92.4092 83.8681 95.8116C76.4905 99.214 68.2925 100.432 60.2444 99.3202C52.4886 98.2491 45.185 95.0584 39.1344 90.1075C38.7564 89.7981 38.7129 89.2391 39.03 88.8676C39.3471 88.4961 39.9048 88.4528 40.2831 88.7618C46.0764 93.4935 53.0654 96.5431 60.4864 97.568C68.1996 98.6331 76.0566 97.4662 83.1274 94.2053C90.1981 90.9445 96.1866 85.7261 100.384 79.1679C104.423 72.8582 106.641 65.5625 106.803 58.0842C106.813 57.5959 107.208 57.1998 107.697 57.1998Z" fill="black"/>
<path d="M107.697 57.1998C108.185 57.1998 108.582 57.5959 108.572 58.0842C108.409 65.9005 106.095 73.5271 101.874 80.1214C97.4943 86.9643 91.2458 92.4092 83.8681 95.8116C76.4905 99.214 68.2925 100.432 60.2444 99.3202C52.4886 98.2491 45.185 95.0584 39.1344 90.1075C38.7564 89.7981 38.7129 89.2391 39.03 88.8676C39.3471 88.4961 39.9048 88.4528 40.2831 88.7618C46.0764 93.4935 53.0654 96.5431 60.4864 97.568C68.1996 98.6331 76.0566 97.4662 83.1274 94.2053C90.1981 90.9445 96.1866 85.7261 100.384 79.1679C104.423 72.8582 106.641 65.5625 106.803 58.0842C106.813 57.5959 107.208 57.1998 107.697 57.1998Z" fill="black"/>
<path d="M27.1907 42.2805C26.7347 42.1055 26.506 41.5934 26.6905 41.1412C30.4842 31.8399 37.4539 24.172 46.3745 19.5122C55.295 14.8524 65.5701 13.5122 75.3715 15.7118C75.8481 15.8188 76.1377 16.2989 76.0209 16.7732C75.9041 17.2475 75.425 17.5362 74.9483 17.4297C65.5654 15.3329 55.732 16.6198 47.1934 21.08C38.6549 25.5403 31.9812 32.8762 28.3422 41.7752C28.1573 42.2273 27.6467 42.4555 27.1907 42.2805Z" fill="black"/>
<path d="M27.1907 42.2805C26.7347 42.1055 26.506 41.5934 26.6905 41.1412C30.4842 31.8399 37.4539 24.172 46.3745 19.5122C55.295 14.8524 65.5701 13.5122 75.3715 15.7118C75.8481 15.8188 76.1377 16.2989 76.0209 16.7732C75.9041 17.2475 75.425 17.5362 74.9483 17.4297C65.5654 15.3329 55.732 16.6198 47.1934 21.08C38.6549 25.5403 31.9812 32.8762 28.3422 41.7752C28.1573 42.2273 27.6467 42.4555 27.1907 42.2805Z" fill="black"/>
<path fill-rule="evenodd" clip-rule="evenodd" d="M83.7701 21.8753C82.2026 21.8753 80.9199 23.185 80.9199 24.7859V38.0072C80.9199 39.6079 82.2026 40.9177 83.7701 40.9177H86.0695L84.559 45.0058C84.4168 45.391 84.887 45.7037 85.1744 45.4152L89.6543 40.9177H123.151C124.719 40.9177 126.001 39.6079 126.001 38.0072V24.7859C126.001 23.185 124.719 21.8753 123.151 21.8753H83.7701Z" fill="#FFC784" stroke="black" stroke-width="1.5"/>
<circle cx="93.8801" cy="34.5048" r="2.8176" fill="white" stroke="black" stroke-width="1.5"/>
<circle cx="104.025" cy="34.5048" r="2.8176" fill="white" stroke="black" stroke-width="1.5"/>
<circle cx="114.169" cy="34.5048" r="2.8176" fill="white" stroke="black" stroke-width="1.5"/>
<path fill-rule="evenodd" clip-rule="evenodd" d="M43.7438 69.8318H39.7151L41.477 75.4688C41.6431 76.0004 40.9664 76.3832 40.5947 75.9677L35.1038 69.8318H3.42688C2.09208 69.8318 1 68.7419 1 67.4101V51.9436C1 50.6117 2.09208 49.5219 3.42688 49.5219H43.7438C45.0784 49.5219 46.1707 50.6117 46.1707 51.9436V67.4101C46.1707 68.7419 45.0784 69.8318 43.7438 69.8318Z" fill="#B8ECFF"/>
<path d="M43.7438 69.8318H39.7151L41.477 75.4688C41.6431 76.0004 40.9664 76.3832 40.5947 75.9677L35.1038 69.8318H3.42688C2.09208 69.8318 1 68.7419 1 67.4101V51.9436C1 50.6117 2.09208 49.5219 3.42688 49.5219H43.7438C45.0784 49.5219 46.1707 50.6117 46.1707 51.9436V67.4101C46.1707 68.7419 45.0784 69.8318 43.7438 69.8318" stroke="black" stroke-width="1.5"/>
<circle cx="13.1612" cy="62.4343" r="2.89556" fill="white" stroke="black" stroke-width="1.5"/>
<circle cx="23.585" cy="62.4343" r="2.89556" fill="white" stroke="black" stroke-width="1.5"/>
<circle cx="34.0108" cy="62.4343" r="2.89556" fill="white" stroke="black" stroke-width="1.5"/>
<circle cx="67.0847" cy="44.9047" r="6.93436" fill="white" stroke="black" stroke-width="1.5"/>
<path d="M54.0039 69.4945C54.0039 62.2696 59.8608 56.4126 67.0858 56.4126C74.3107 56.4126 80.1676 62.2696 80.1676 69.4945V77.4534H54.0039V69.4945Z" fill="white" stroke="black" stroke-width="1.5"/>
</svg>
