<svg width="112" height="80" viewBox="0 0 112 80" fill="none" xmlns="http://www.w3.org/2000/svg">
<path d="M67.3862 69.1308L77.3717 77.4102V69.1308H80.6543C82.8634 69.1308 84.6543 67.3399 84.6543 65.1308V31.5244C84.6543 29.3153 82.8634 27.5244 80.6543 27.5244H4.99977C2.79063 27.5244 0.999771 29.3153 0.999771 31.5244V65.1308C0.999771 67.3399 2.79063 69.1308 4.99977 69.1308H67.3862Z" fill="white" stroke="black" stroke-width="1.5"/>
<circle cx="22.2553" cy="47.2442" r="5.9057" fill="#A2FFED" stroke="black" stroke-width="1.5"/>
<circle cx="43.5151" cy="47.2442" r="5.9057" fill="#A2FFED" stroke="black" stroke-width="1.5"/>
<circle cx="64.7787" cy="47.2442" r="5.9057" fill="#A2FFED" stroke="black" stroke-width="1.5"/>
<circle cx="91.3806" cy="20.7457" r="19.5857" fill="#FFDCB3" stroke="black" stroke-width="1.5"/>
<path d="M92.0048 30.1698C97.4903 30.1698 101.937 25.7229 101.937 20.2373C101.937 14.7518 97.4903 10.3049 92.0048 10.3049C86.5192 10.3049 82.0723 14.7518 82.0723 20.2373C82.0723 25.7229 86.5192 30.1698 92.0048 30.1698Z" fill="white" stroke="black" stroke-width="1.5" stroke-linecap="round" stroke-linejoin="round"/>
<path d="M92.0059 14.2778V20.2373L95.9789 22.2238" stroke="black" stroke-width="1.5" stroke-linecap="round" stroke-linejoin="round"/>
</svg>
