<svg width="99" height="86" viewBox="0 0 99 86" fill="none" xmlns="http://www.w3.org/2000/svg">
<circle cx="40.5865" cy="44.9184" r="39.8365" fill="white" stroke="black" stroke-width="1.5"/>
<mask id="mask0_2064_340" style="mask-type:alpha" maskUnits="userSpaceOnUse" x="0" y="4" width="82" height="82">
<circle cx="40.5865" cy="44.9184" r="39.8365" fill="white" stroke="black" stroke-width="1.5"/>
</mask>
<g mask="url(#mask0_2064_340)">
<circle cx="42.6154" cy="36.8011" r="11.426" stroke="black" stroke-width="1.5"/>
<rect x="21.043" y="53.7864" width="41.1158" height="45.1745" rx="20.5579" fill="#E6F8FF" stroke="black" stroke-width="1.5"/>
</g>
<circle cx="79.1001" cy="19.3773" r="18.2173" fill="#FFE0AB" stroke="black" stroke-width="1.5"/>
<path d="M80.9542 22.07H78.3944C78.4021 21.3583 78.4633 20.7614 78.5781 20.2793C78.6929 19.7896 78.8842 19.3457 79.152 18.9478C79.4275 18.5499 79.791 18.129 80.2425 17.6852C80.5945 17.3485 80.9121 17.0309 81.1952 16.7325C81.4783 16.4264 81.7041 16.105 81.8724 15.7683C82.0408 15.4239 82.125 15.0298 82.125 14.586C82.125 14.1039 82.0446 13.6945 81.8839 13.3578C81.7232 13.0211 81.486 12.7647 81.1722 12.5887C80.8662 12.4127 80.4835 12.3247 80.0244 12.3247C79.6418 12.3247 79.2821 12.4013 78.9454 12.5543C78.6087 12.6997 78.3371 12.9293 78.1304 13.243C77.9238 13.5491 77.8129 13.9547 77.7976 14.4597H75.0312C75.0466 13.4955 75.2761 12.6844 75.72 12.0263C76.1638 11.3682 76.7607 10.8746 77.5106 10.5456C78.2605 10.2165 79.0985 10.052 80.0244 10.052C81.0498 10.052 81.926 10.228 82.653 10.58C83.3799 10.9244 83.9347 11.4294 84.3174 12.0952C84.7076 12.7533 84.9028 13.5491 84.9028 14.4827C84.9028 15.1561 84.7688 15.7683 84.501 16.3192C84.2332 16.8626 83.885 17.3714 83.4565 17.8459C83.0279 18.3127 82.565 18.7795 82.0676 19.2463C81.639 19.6365 81.3482 20.0612 81.1952 20.5204C81.0422 20.9719 80.9618 21.4884 80.9542 22.07ZM78.1649 25.6513C78.1649 25.238 78.3064 24.8899 78.5896 24.6067C78.8727 24.3159 79.2592 24.1705 79.7489 24.1705C80.2387 24.1705 80.6251 24.3159 80.9082 24.6067C81.1914 24.8899 81.3329 25.238 81.3329 25.6513C81.3329 26.0645 81.1914 26.4165 80.9082 26.7073C80.6251 26.9904 80.2387 27.132 79.7489 27.132C79.2592 27.132 78.8727 26.9904 78.5896 26.7073C78.3064 26.4165 78.1649 26.0645 78.1649 25.6513Z" fill="black"/>
</svg>
