<svg width="101" height="76" viewBox="0 0 101 76" fill="none" xmlns="http://www.w3.org/2000/svg">
<path d="M10.1445 68.8459L75.6304 68.8459" stroke="black" stroke-width="1.5"/>
<path d="M1.88281 25.7783H56.1594" stroke="black" stroke-width="1.5"/>
<path d="M82.1199 37.4583V67.8967C82.1199 71.7627 78.9859 74.8967 75.1199 74.8967H8C4.13401 74.8967 1 71.7627 1 67.8967V16.7481C1 12.8821 4.13401 9.74806 8 9.74806H57.0465" stroke="black" stroke-width="1.5"/>
<path d="M14.2773 68.8454V56.4562H23.1268V68.8454H14.2773Z" fill="white" stroke="black" stroke-width="1.5"/>
<path d="M29.0234 68.8455V36.3975H37.8729V68.8455H29.0234Z" fill="#FFE0AB" stroke="black" stroke-width="1.5"/>
<path d="M43.7754 68.8456V52.3266H52.6248V68.8456H43.7754Z" fill="white" stroke="black" stroke-width="1.5"/>
<path d="M58.5234 68.8453V42.297H67.3729V68.8453H58.5234Z" fill="#B1ECFF" stroke="black" stroke-width="1.5"/>
<path d="M75.875 34.0044C83.6652 34.0044 89.9805 27.6892 89.9805 19.8989C89.9805 12.1087 83.6652 5.79344 75.875 5.79344C68.0848 5.79344 61.7695 12.1087 61.7695 19.8989C61.7695 27.6892 68.0848 34.0044 75.875 34.0044Z" fill="#74FACF" stroke="black" stroke-width="1.5" stroke-linecap="round" stroke-linejoin="round"/>
<path d="M94.8318 37.5297L86.7051 29.7237" stroke="black" stroke-width="1.5" stroke-linecap="round" stroke-linejoin="round"/>
<path d="M70.1191 20.1264L74.915 24.3893L83.1745 14.7976" stroke="black" stroke-width="1.5" stroke-linecap="round"/>
</svg>
