<svg width="95" height="67" viewBox="0 0 95 67" fill="none" xmlns="http://www.w3.org/2000/svg">
<rect x="17.7578" y="7.84747" width="76.2419" height="58.5626" rx="5" fill="white"/>
<path d="M86.2655 18.3444H18.8633V12.9523C18.8633 10.7431 20.6541 8.95227 22.8633 8.95227H88.4477C91.2091 8.95227 93.4477 11.1908 93.4477 13.9523V59.8952" stroke="black" stroke-width="1.5" stroke-linecap="round"/>
<path d="M18.8633 26.079L19.3336 59.9407C19.3792 63.2216 22.0518 65.8573 25.333 65.8573H86.0954H88.3196C91.081 65.8573 93.3196 63.6188 93.3196 60.8573V59.8952" stroke="black" stroke-width="1.5" stroke-linecap="round"/>
<mask id="mask0_2064_376" style="mask-type:alpha" maskUnits="userSpaceOnUse" x="70" y="22" width="23" height="38">
<rect x="70.418" y="22.5432" width="22.0438" height="36.7397" fill="#D9D9D9"/>
</mask>
<g mask="url(#mask0_2064_376)">
<path fill-rule="evenodd" clip-rule="evenodd" d="M100.902 29.9998C101.706 31.2429 102.294 32.6381 102.615 34.1324H104.908V39.4022H102.615C102.294 40.8969 101.706 42.2921 100.902 43.5352L102.524 45.1563L98.797 48.884L97.1737 47.2617C95.9296 48.0653 94.5336 48.6533 93.0385 48.9742V51.2712H87.7659V48.9742C86.2704 48.6533 84.8745 48.0653 83.6307 47.2617L82.0074 48.884L78.2803 45.1563L79.9022 43.5352C79.0982 42.2921 78.5099 40.8969 78.1887 39.4022H75.8965L75.8994 34.1324H78.1887C78.5102 32.6381 79.0985 31.2429 79.9022 29.9998L78.2866 28.3846L82.0163 24.6598L83.6307 26.2733C84.8745 25.47 86.2704 24.8821 87.7659 24.5607V22.2789H93.0385V24.5607C94.5336 24.8821 95.9296 25.47 97.1734 26.2733L98.7877 24.6598L102.517 28.3846L100.902 29.9998ZM84.2773 36.7739C84.2773 40.1547 87.0192 42.8951 90.4018 42.8951C93.7843 42.8951 96.5262 40.1547 96.5262 36.7739C96.5262 33.3932 93.7843 30.6528 90.4018 30.6528C87.0192 30.6528 84.2773 33.3932 84.2773 36.7739Z" fill="#FFE0AB"/>
<path fill-rule="evenodd" clip-rule="evenodd" d="M88.0472 52.431C87.5809 52.431 87.2024 52.053 87.2024 51.5867V49.9499C86.092 49.6511 85.0302 49.2112 84.032 48.6366L82.876 49.7923C82.7176 49.9506 82.5028 50.0396 82.2788 50.0396H82.2784C82.0544 50.0396 81.8396 49.9502 81.6812 49.7919L77.9477 46.058C77.6178 45.7282 77.6181 45.1936 77.9477 44.8641L79.1027 43.7098C78.5279 42.7125 78.0877 41.6512 77.7887 40.5411H76.1573C75.9329 40.5411 75.7181 40.4521 75.5597 40.2938C75.4013 40.1355 75.3122 39.9204 75.3125 39.6965L75.3155 34.4174C75.3155 33.9514 75.6936 33.5735 76.1602 33.5735H77.7887C78.0877 32.4634 78.5279 31.4024 79.1027 30.4051L77.954 29.2571C77.7956 29.0988 77.7065 28.8838 77.7065 28.6599C77.7065 28.4359 77.7956 28.2212 77.9543 28.0629L81.6904 24.3313C82.0204 24.0018 82.5553 24.0021 82.8849 24.3316L84.0323 25.4783C85.0302 24.9038 86.092 24.4638 87.2024 24.1654V22.5434C87.2024 22.0771 87.5809 21.6992 88.0472 21.6992H93.3292C93.7958 21.6992 94.174 22.0771 94.174 22.5434V24.165C95.2847 24.4638 96.3466 24.9038 97.3444 25.4783L98.4915 24.3316C98.8214 24.0018 99.3563 24.0018 99.686 24.3313L103.422 28.0626C103.581 28.2209 103.67 28.4359 103.67 28.6599C103.67 28.8838 103.581 29.0988 103.423 29.2571L102.274 30.4051C102.849 31.4024 103.289 32.4637 103.588 33.5735H105.219C105.686 33.5735 106.064 33.9514 106.064 34.4178V39.6968C106.064 40.1632 105.686 40.5411 105.219 40.5411H103.588C103.289 41.6512 102.849 42.7125 102.274 43.7098L103.429 44.8641C103.759 45.1936 103.759 45.7282 103.429 46.058L99.6956 49.7919C99.5372 49.9506 99.322 50.0396 99.0983 50.0396C98.8739 50.0396 98.6591 49.9506 98.5007 49.7923L97.3444 48.6366C96.3466 49.2112 95.2847 49.6511 94.174 49.9499V51.5867C94.174 52.053 93.7958 52.431 93.3292 52.431H88.0472ZM83.3091 46.9739C83.5909 46.6926 84.0308 46.6457 84.365 46.8617C85.5503 47.6272 86.8495 48.1654 88.2265 48.4609C88.6155 48.5447 88.8937 48.8887 88.8937 49.2864V50.7431H92.4862V49.2864C92.4862 48.8883 92.7641 48.5447 93.1535 48.4609C94.5305 48.1651 95.8296 47.6272 97.0149 46.8617C97.3492 46.6457 97.7891 46.6922 98.0709 46.9739L99.0994 48.0015L101.639 45.4618L100.611 44.4348C100.33 44.1535 100.283 43.7138 100.499 43.3794C101.265 42.1951 101.803 40.8964 102.099 39.5201C102.183 39.1313 102.527 38.8533 102.925 38.8533H104.376V35.2628H102.925C102.527 35.2628 102.182 34.9851 102.099 34.5959C101.803 33.2197 101.265 31.9213 100.499 30.7367C100.283 30.4026 100.329 29.9629 100.611 29.6813L101.632 28.6609L99.0908 26.1231L98.0705 27.1425C97.7891 27.4242 97.3492 27.4707 97.0149 27.2547C95.8299 26.4892 94.5305 25.9513 93.1535 25.6555C92.7641 25.572 92.4862 25.2281 92.4862 24.83V23.3884H88.8937V24.8303C88.8937 25.2281 88.6155 25.572 88.2265 25.6558C86.8491 25.9513 85.55 26.4895 84.365 27.255C84.0304 27.4707 83.5909 27.4242 83.3091 27.1429L82.2891 26.1231L79.7479 28.6609L80.7689 29.6816C81.0504 29.9629 81.0972 30.4026 80.8811 30.7367C80.1152 31.9213 79.5767 33.2197 79.281 34.5959C79.1972 34.9851 78.8533 35.2628 78.455 35.2628H77.0061L77.0041 38.8533H78.455C78.8533 38.8533 79.1972 39.1313 79.281 39.5201C79.5767 40.8967 80.1152 42.1951 80.8811 43.3797C81.0972 43.7138 81.0504 44.1535 80.7689 44.4348L79.7413 45.4621L82.2805 48.0019L83.3091 46.9739Z" fill="black"/>
<path fill-rule="evenodd" clip-rule="evenodd" d="M90.4021 29.8171C94.2414 29.8171 97.3648 32.9384 97.3648 36.7752C97.3648 40.612 94.2414 43.7334 90.4021 43.7334C86.5628 43.7334 83.4395 40.612 83.4395 36.7752C83.4395 32.9384 86.5628 29.8171 90.4021 29.8171ZM90.4024 31.5026C87.4923 31.5026 85.125 33.8683 85.125 36.7765C85.125 39.6847 87.4923 42.0505 90.4024 42.0505C93.3125 42.0505 95.6798 39.6844 95.6798 36.7765C95.6798 33.8687 93.3125 31.5026 90.4024 31.5026Z" fill="black"/>
</g>
<path d="M35.5137 31.1158H64.9055" stroke="black" stroke-width="1.5"/>
<path d="M35.5137 42.1377H63.6808" stroke="black" stroke-width="1.5"/>
<path d="M36.125 53.1596H52.0455" stroke="black" stroke-width="1.5"/>
<circle cx="17.7575" cy="18.257" r="17.0075" fill="#94FBE8" stroke="black" stroke-width="1.5"/>
<path d="M11.6367 18.4889L16.8576 22.6656L24.1669 12.7459" stroke="black" stroke-width="1.5" stroke-linecap="round"/>
</svg>
