<svg width="96" height="76" viewBox="0 0 96 76" fill="none" xmlns="http://www.w3.org/2000/svg">
<rect x="0.75" y="1.16016" width="72.0666" height="22.079" rx="11.0395" fill="white" stroke="black" stroke-width="1.5"/>
<rect x="0.75" y="22.7372" width="72.0666" height="22.079" rx="11.0395" fill="white" stroke="black" stroke-width="1.5"/>
<rect x="0.75" y="44.3125" width="72.0666" height="22.079" rx="11.0395" fill="white" stroke="black" stroke-width="1.5"/>
<circle cx="18.5361" cy="12.5913" r="4.01655" fill="#CDF2FF" stroke="black" stroke-width="1.5"/>
<circle cx="18.5361" cy="33.7752" r="4.01655" fill="#CDF2FF" stroke="black" stroke-width="1.5"/>
<circle cx="18.5361" cy="54.9604" r="4.01655" fill="#CDF2FF" stroke="black" stroke-width="1.5"/>
<circle cx="34.4248" cy="12.5913" r="4.01655" fill="#CDF2FF" stroke="black" stroke-width="1.5"/>
<circle cx="34.4248" cy="33.7752" r="4.01655" fill="#CDF2FF" stroke="black" stroke-width="1.5"/>
<circle cx="34.4248" cy="54.9604" r="4.01655" fill="#CDF2FF" stroke="black" stroke-width="1.5"/>
<circle cx="72.6957" cy="52.3118" r="22.5531" fill="#FFDCB3" stroke="black" stroke-width="1.5"/>
<path d="M64.2227 43.1307L73.2261 40.6608L82.2296 43.1307V49.807C82.2296 54.6524 80.0338 59.2368 76.2584 62.2739L74.1575 63.9639L71.0161 61.9106C66.7774 59.1402 64.2227 54.4184 64.2227 49.3547V43.1307Z" fill="white" stroke="black" stroke-width="1.5"/>
</svg>
