<svg width="83" height="64" viewBox="0 0 83 64" fill="none" xmlns="http://www.w3.org/2000/svg">
<rect y="0.410156" width="82.0189" height="63" rx="5" fill="white"/>
<path d="M73.6989 11.7023H1.18945V5.59848C1.18945 3.38934 2.98031 1.59848 5.18945 1.59848H76.4253C79.1867 1.59848 81.4253 3.83706 81.4253 6.59848V56.4014" stroke="black" stroke-width="1.5" stroke-linecap="round"/>
<path d="M1.18945 20.0231L1.70162 56.8989C1.74718 60.1798 4.41982 62.8155 7.70104 62.8155H73.5159H76.2875C79.0489 62.8155 81.2875 60.5769 81.2875 57.8155V56.4016" stroke="black" stroke-width="1.5" stroke-linecap="round"/>
<path fill-rule="evenodd" clip-rule="evenodd" d="M54.7848 24.4986C55.6494 25.8359 56.2823 27.3368 56.6281 28.9444H59.0941V34.6135H56.6281C56.2826 36.2214 55.6498 37.7223 54.7848 39.0597L56.5296 40.8036L52.5205 44.8138L50.7742 43.0684C49.4358 43.933 47.9341 44.5655 46.3257 44.9108V47.3818H40.6535V44.9108C39.0448 44.5655 37.543 43.933 36.205 43.0684L34.4587 44.8138L30.4492 40.8036L32.1941 39.0597C31.3291 37.7223 30.6962 36.2214 30.3507 34.6135H27.8848L27.888 28.9444H30.3507C30.6966 27.3368 31.3294 25.8359 32.1941 24.4986L30.456 22.761L34.4683 18.754L36.205 20.4898C37.543 19.6256 39.0448 18.9931 40.6535 18.6474V16.1927H46.3257V18.6474C47.9341 18.9931 49.4358 19.6256 50.7739 20.4898L52.5105 18.754L56.5229 22.761L54.7848 24.4986ZM36.9023 31.7861C36.9023 35.423 39.852 38.3711 43.4908 38.3711C47.1297 38.3711 50.0793 35.423 50.0793 31.7861C50.0793 28.1492 47.1297 25.2011 43.4908 25.2011C39.852 25.2011 36.9023 28.1492 36.9023 31.7861Z" fill="#FFE0AB"/>
<path fill-rule="evenodd" clip-rule="evenodd" d="M40.9594 48.6294C40.4578 48.6294 40.0506 48.2229 40.0506 47.7212V45.9604C38.8561 45.639 37.7137 45.1657 36.6399 44.5476L35.3964 45.7908C35.226 45.9611 34.9949 46.0569 34.7539 46.0569H34.7535C34.5125 46.0569 34.2814 45.9607 34.111 45.7904L30.0947 41.7736C29.7397 41.4188 29.7401 40.8437 30.0947 40.4892L31.3371 39.2475C30.7188 38.1746 30.2452 37.0329 29.9236 35.8387H28.1685C27.9271 35.8387 27.696 35.7429 27.5257 35.5726C27.3553 35.4023 27.2594 35.171 27.2598 34.9301L27.263 29.251C27.263 28.7497 27.6698 28.3431 28.1717 28.3431H29.9236C30.2452 27.1489 30.7188 26.0076 31.3371 24.9347L30.1014 23.6997C29.931 23.5294 29.8352 23.2981 29.8352 23.0572C29.8352 22.8163 29.931 22.5853 30.1018 22.415L34.1209 18.4006C34.4759 18.0461 35.0514 18.0465 35.406 18.4009L36.6403 19.6345C37.7137 19.0165 38.8561 18.5432 40.0506 18.2221V16.4773C40.0506 15.9756 40.4578 15.569 40.9594 15.569H46.6416C47.1436 15.569 47.5504 15.9756 47.5504 16.4773V18.2218C48.7453 18.5432 49.8876 19.0165 50.9611 19.6345L52.195 18.4009C52.55 18.0461 53.1255 18.0461 53.4801 18.4006L57.4996 22.4146C57.67 22.5849 57.7658 22.8163 57.7662 23.0572C57.7662 23.2981 57.6704 23.5294 57.5 23.6997L56.2643 24.9347C56.8826 26.0076 57.3558 27.1493 57.6775 28.3431H59.4329C59.9348 28.3431 60.3416 28.7497 60.3416 29.2514V34.9304C60.3416 35.4321 59.9348 35.8387 59.4329 35.8387H57.6778C57.3562 37.0329 56.8826 38.1746 56.2643 39.2475L57.5067 40.4892C57.8613 40.8437 57.8613 41.4188 57.5067 41.7736L53.4904 45.7904C53.32 45.9611 53.0885 46.0569 52.8479 46.0569C52.6065 46.0569 52.3754 45.9611 52.205 45.7908L50.9611 44.5476C49.8876 45.1657 48.7453 45.639 47.5504 45.9604V47.7212C47.5504 48.2229 47.1436 48.6294 46.6416 48.6294H40.9594ZM35.8608 42.7588C36.164 42.4561 36.6372 42.4057 36.9968 42.6381C38.2719 43.4616 39.6695 44.0406 41.1508 44.3585C41.5694 44.4486 41.8686 44.8186 41.8686 45.2465V46.8136H45.7334V45.2465C45.7334 44.8183 46.0323 44.4486 46.4511 44.3585C47.9325 44.0402 49.3301 43.4616 50.6052 42.6381C50.9648 42.4057 51.438 42.4558 51.7411 42.7588L52.8476 43.8643L55.5793 41.1321L54.4738 40.0272C54.171 39.7246 54.1206 39.2517 54.3531 38.8919C55.1771 37.6179 55.7564 36.2207 56.0745 34.7402C56.1646 34.3219 56.5345 34.0228 56.963 34.0228H58.5246V30.1603H56.963C56.5345 30.1603 56.1643 29.8616 56.0745 29.4429C55.756 27.9624 55.1771 26.5656 54.3531 25.2912C54.1206 24.9318 54.1707 24.4589 54.4738 24.1559L55.5722 23.0582L52.8384 20.3281L51.7408 21.4247C51.438 21.7277 50.9648 21.7777 50.6052 21.5454C49.3304 20.7219 47.9325 20.1432 46.4511 19.825C46.0323 19.7352 45.7334 19.3652 45.7334 18.937V17.3862H41.8686V18.9373C41.8686 19.3652 41.5694 19.7352 41.1508 19.8254C39.6691 20.1432 38.2716 20.7223 36.9968 21.5457C36.6368 21.7777 36.164 21.7277 35.8608 21.4251L34.7636 20.3281L32.0298 23.0582L33.1282 24.1562C33.431 24.4589 33.4814 24.9318 33.2489 25.2912C32.4249 26.5656 31.8456 27.9624 31.5275 29.4429C31.4374 29.8616 31.0675 30.1603 30.639 30.1603H29.0803L29.0781 34.0228H30.639C31.0675 34.0228 31.4374 34.3219 31.5275 34.7402C31.8456 36.2211 32.4249 37.6179 33.2489 38.8923C33.4814 39.2517 33.431 39.7246 33.1282 40.0272L32.0227 41.1324L34.7544 43.8646L35.8608 42.7588Z" fill="black"/>
<path fill-rule="evenodd" clip-rule="evenodd" d="M43.4902 24.3022C47.6204 24.3022 50.9805 27.66 50.9805 31.7876C50.9805 35.9151 47.6204 39.2729 43.4902 39.2729C39.36 39.2729 36 35.9151 36 31.7876C36 27.66 39.36 24.3022 43.4902 24.3022ZM43.4878 26.1153C40.3572 26.1153 37.8105 28.6603 37.8105 31.7889C37.8105 34.9174 40.3572 37.4625 43.4878 37.4625C46.6184 37.4625 49.1651 34.9171 49.1651 31.7889C49.1651 28.6607 46.6184 26.1153 43.4878 26.1153Z" fill="black"/>
</svg>
