<svg width="250" height="61" viewBox="0 0 250 61" fill="none" xmlns="http://www.w3.org/2000/svg">
<rect x="1" y="1" width="248" height="59" rx="6" fill="white" stroke="black" stroke-width="2"/>
<path d="M223.945 29.6313L215.133 29.6543" stroke="black" stroke-width="1.5" stroke-linecap="round" stroke-linejoin="round"/>
<path fill-rule="evenodd" clip-rule="evenodd" d="M215.135 29.6526L213.11 21.3541C212.844 20.2668 213.998 19.3821 214.981 19.9202L230.694 28.5307C231.588 29.0199 231.585 30.3053 230.689 30.7901L215.021 39.292C214.039 39.8246 212.892 38.9437 213.154 37.8588L215.135 29.6526Z" stroke="black" stroke-width="1.5" stroke-linecap="round" stroke-linejoin="round"/>
<path d="M28.8 35.12C26.805 35.12 25.455 34.16 24.735 32.255L25.8 31.7C26.4 33.155 27.285 33.965 28.8 33.965C29.505 33.965 30.105 33.77 30.585 33.395C31.08 33.02 31.32 32.525 31.32 31.925C31.32 30.725 30.39 30.02 28.59 29.585C26.19 29 25.08 27.965 25.08 26.33C25.08 25.355 25.44 24.59 26.16 24.005C26.88 23.42 27.75 23.12 28.77 23.12C30.63 23.12 31.92 24.08 32.475 25.565L31.425 26.15C30.93 24.905 30.03 24.275 28.74 24.275C28.08 24.275 27.51 24.455 27.03 24.83C26.55 25.205 26.31 25.685 26.31 26.27C26.31 27.335 27.03 27.905 28.815 28.37C30.195 28.715 31.185 29.21 31.77 29.855C32.31 30.44 32.58 31.1 32.58 31.835C32.58 32.735 32.235 33.515 31.545 34.16C30.855 34.805 29.94 35.12 28.8 35.12ZM41.8189 31.355H35.3389C35.3839 32.135 35.6839 32.795 36.2239 33.32C36.7639 33.845 37.4239 34.1 38.2039 34.1C39.3289 34.1 40.2739 33.455 40.7389 32.495L41.6089 33.065C40.9339 34.385 39.6589 35.135 38.2189 35.135C37.0639 35.135 36.1039 34.73 35.3239 33.935C34.5439 33.125 34.1539 32.135 34.1539 30.98C34.1539 29.87 34.5289 28.91 35.2789 28.085C36.0289 27.26 36.9589 26.855 38.0539 26.855C39.2539 26.855 40.1839 27.245 40.8439 28.01C41.5039 28.775 41.8339 29.75 41.8339 30.965C41.8339 31.145 41.8339 31.28 41.8189 31.355ZM35.3539 30.365H40.6489C40.4839 28.865 39.5539 27.875 38.0539 27.875C37.3789 27.875 36.7789 28.115 36.2689 28.61C35.7589 29.09 35.4589 29.675 35.3539 30.365ZM46.4603 30.38H48.6803V29.84C48.6803 28.535 48.0053 27.89 46.6403 27.89C45.6053 27.89 44.8403 28.415 44.3453 29.465L43.3853 28.925C43.9853 27.545 45.0803 26.855 46.6703 26.855C48.1403 26.855 49.1153 27.41 49.5953 28.505C49.7603 28.895 49.8353 29.33 49.8353 29.825V35H48.6953V33.59H48.6803C48.0203 34.625 47.1203 35.135 45.9803 35.135C45.1853 35.135 44.5253 34.91 44.0303 34.475C43.5353 34.025 43.2953 33.455 43.2953 32.78V32.69C43.2953 31.895 43.6103 31.325 44.2403 30.95C44.8853 30.575 45.6203 30.38 46.4603 30.38ZM48.6803 31.625V31.34H46.4453C45.5303 31.325 44.5103 31.64 44.4653 32.69C44.4653 33.575 45.1853 34.1 46.1903 34.1C46.9103 34.1 47.5103 33.875 47.9753 33.41C48.4403 32.945 48.6803 32.36 48.6803 31.625ZM52.3757 26.99H53.5307V28.58C54.0857 27.425 55.0907 26.87 56.1107 26.87C56.3057 26.87 56.4407 26.87 56.5007 26.885V28.13C56.3057 28.115 56.1557 28.1 56.0507 28.1C55.1807 28.1 54.5507 28.4 54.1457 28.985C53.7407 29.57 53.5457 30.26 53.5457 31.085V35H52.3757V26.99ZM58.4106 30.95C58.4106 31.805 58.6806 32.555 59.2206 33.17C59.7606 33.785 60.4506 34.1 61.3056 34.1C62.5206 34.1 63.3756 33.5 63.8406 32.3L64.8606 32.75C64.3656 34.13 63.1056 35.135 61.2906 35.135C60.1356 35.135 59.1756 34.745 58.3806 33.965C57.6006 33.17 57.2106 32.18 57.2106 30.995C57.2106 29.84 57.6006 28.85 58.3956 28.055C59.1906 27.26 60.1656 26.855 61.3056 26.855C63.1056 26.855 64.3656 27.86 64.8306 29.195L63.8106 29.645C63.4506 28.64 62.6256 27.89 61.3056 27.89C60.4656 27.89 59.7756 28.19 59.2206 28.79C58.6806 29.375 58.4106 30.095 58.4106 30.95ZM73.7347 35H72.5647V30.335C72.5647 28.85 71.7847 27.905 70.3447 27.905C69.6547 27.905 69.0847 28.145 68.6347 28.64C68.1847 29.12 67.9597 29.72 67.9597 30.44V35H66.7897V22.79H67.9597V28.43C68.6047 27.365 69.5197 26.84 70.7047 26.84C72.6247 26.84 73.7347 28.13 73.7347 30.05V35ZM87.4017 35H86.2317V30.335C86.2317 28.85 85.4517 27.905 84.0117 27.905C83.3217 27.905 82.7517 28.145 82.3017 28.64C81.8517 29.12 81.6267 29.72 81.6267 30.44V35H80.4567V22.79H81.6267V28.43C82.2717 27.365 83.1867 26.84 84.3717 26.84C86.2917 26.84 87.4017 28.13 87.4017 30.05V35ZM97.0143 31.355H90.5343C90.5793 32.135 90.8793 32.795 91.4193 33.32C91.9593 33.845 92.6193 34.1 93.3993 34.1C94.5243 34.1 95.4693 33.455 95.9343 32.495L96.8043 33.065C96.1293 34.385 94.8543 35.135 93.4143 35.135C92.2593 35.135 91.2993 34.73 90.5193 33.935C89.7393 33.125 89.3493 32.135 89.3493 30.98C89.3493 29.87 89.7243 28.91 90.4743 28.085C91.2243 27.26 92.1543 26.855 93.2493 26.855C94.4493 26.855 95.3793 27.245 96.0393 28.01C96.6993 28.775 97.0293 29.75 97.0293 30.965C97.0293 31.145 97.0293 31.28 97.0143 31.355ZM90.5493 30.365H95.8443C95.6793 28.865 94.7493 27.875 93.2493 27.875C92.5743 27.875 91.9743 28.115 91.4643 28.61C90.9543 29.09 90.6543 29.675 90.5493 30.365ZM99.0456 26.99H100.201V28.58C100.756 27.425 101.761 26.87 102.781 26.87C102.976 26.87 103.111 26.87 103.171 26.885V28.13C102.976 28.115 102.826 28.1 102.721 28.1C101.851 28.1 101.221 28.4 100.816 28.985C100.411 29.57 100.216 30.26 100.216 31.085V35H99.0456V26.99ZM111.546 31.355H105.066C105.111 32.135 105.411 32.795 105.951 33.32C106.491 33.845 107.151 34.1 107.931 34.1C109.056 34.1 110.001 33.455 110.466 32.495L111.336 33.065C110.661 34.385 109.386 35.135 107.946 35.135C106.791 35.135 105.831 34.73 105.051 33.935C104.271 33.125 103.881 32.135 103.881 30.98C103.881 29.87 104.256 28.91 105.006 28.085C105.756 27.26 106.686 26.855 107.781 26.855C108.981 26.855 109.911 27.245 110.571 28.01C111.231 28.775 111.561 29.75 111.561 30.965C111.561 31.145 111.561 31.28 111.546 31.355ZM105.081 30.365H110.376C110.211 28.865 109.281 27.875 107.781 27.875C107.106 27.875 106.506 28.115 105.996 28.61C105.486 29.09 105.186 29.675 105.081 30.365ZM114.357 32.975C114.942 32.975 115.422 33.455 115.422 34.055C115.422 34.655 114.942 35.135 114.357 35.135C113.757 35.135 113.277 34.655 113.277 34.055C113.277 33.455 113.757 32.975 114.357 32.975ZM118.546 32.975C119.131 32.975 119.611 33.455 119.611 34.055C119.611 34.655 119.131 35.135 118.546 35.135C117.946 35.135 117.466 34.655 117.466 34.055C117.466 33.455 117.946 32.975 118.546 32.975ZM122.736 32.975C123.321 32.975 123.801 33.455 123.801 34.055C123.801 34.655 123.321 35.135 122.736 35.135C122.136 35.135 121.656 34.655 121.656 34.055C121.656 33.455 122.136 32.975 122.736 32.975Z" fill="black"/>
</svg>
